<svg width="24" height="24" viewBox="0 0 24 24" fill="none" xmlns="http://www.w3.org/2000/svg">
<path d="M8.781 7.281C8.85073 7.21127 8.90604 7.12849 8.94378 7.03738C8.98152 6.94627 9.00095 6.84862 9.00095 6.75C9.00095 6.65139 8.98152 6.55373 8.94378 6.46263C8.90604 6.37152 8.85073 6.28873 8.781 6.219C8.71127 6.14927 8.62848 6.09395 8.53737 6.05622C8.44626 6.01848 8.34861 5.99905 8.25 5.99905C8.15138 5.99905 8.05373 6.01848 7.96262 6.05622C7.87151 6.09395 7.78873 6.14927 7.719 6.219L2.469 11.469C2.39915 11.5387 2.34374 11.6214 2.30593 11.7126C2.26812 11.8037 2.24866 11.9014 2.24866 12C2.24866 12.0987 2.26812 12.1963 2.30593 12.2875C2.34374 12.3786 2.39915 12.4613 2.469 12.531L7.719 17.781C7.85983 17.9218 8.05083 18.0009 8.25 18.0009C8.44916 18.0009 8.64017 17.9218 8.781 17.781C8.92183 17.6402 9.00095 17.4492 9.00095 17.25C9.00095 17.0508 8.92183 16.8598 8.781 16.719L4.0605 12L8.781 7.281V7.281ZM15.219 7.281C15.0782 7.14017 14.999 6.94916 14.999 6.75C14.999 6.55084 15.0782 6.35983 15.219 6.219C15.3598 6.07817 15.5508 5.99905 15.75 5.99905C15.9492 5.99905 16.1402 6.07817 16.281 6.219L21.531 11.469C21.6008 11.5387 21.6563 11.6214 21.6941 11.7126C21.7319 11.8037 21.7513 11.9014 21.7513 12C21.7513 12.0987 21.7319 12.1963 21.6941 12.2875C21.6563 12.3786 21.6008 12.4613 21.531 12.531L16.281 17.781C16.1402 17.9218 15.9492 18.0009 15.75 18.0009C15.5508 18.0009 15.3598 17.9218 15.219 17.781C15.0782 17.6402 14.999 17.4492 14.999 17.25C14.999 17.0508 15.0782 16.8598 15.219 16.719L19.9395 12L15.219 7.281V7.281Z" fill="white"/>
</svg>
